<svg xmlns="http://www.w3.org/2000/svg" width="1024" height="1024" viewBox="0 0 1024 1024">
<g>
<path d="M 357.17 706.99 C348.55,707.54 339.70,707.91 337.50,707.80 C335.30,707.70 330.58,707.48 327.00,707.32 C279.12,705.18 227.84,690.47 196.67,669.94 C190.12,665.62 188.93,664.43 189.38,662.63 C189.88,660.63 216.66,601.00 217.38,600.28 C217.56,600.10 221.65,602.43 226.46,605.45 C253.24,622.26 282.69,632.36 318.63,637.06 C332.05,638.81 361.92,637.76 373.82,635.11 C394.47,630.51 406.70,620.92 410.50,606.36 C414.23,592.04 408.17,579.92 392.62,570.60 C382.21,564.36 378.67,563.25 325.50,549.47 C266.17,534.10 247.60,526.90 229.87,512.40 C205.85,492.74 196.05,471.68 196.01,439.66 C195.99,413.44 203.91,390.62 219.69,371.49 C238.92,348.18 275.11,330.75 315.00,325.58 C358.87,319.91 403.88,324.53 445.75,339.00 C457.36,343.02 481.00,354.62 481.00,356.31 C481.00,356.82 479.01,362.02 476.59,367.87 C474.16,373.72 468.33,387.89 463.64,399.36 C458.95,410.84 454.93,420.40 454.72,420.61 C454.51,420.82 451.87,419.65 448.85,418.02 C431.02,408.36 407.96,399.98 389.08,396.30 C376.92,393.93 373.10,393.65 352.50,393.58 C333.96,393.51 327.85,393.85 321.00,395.30 C303.27,399.05 289.89,408.18 284.49,420.20 C278.77,432.95 281.57,448.19 291.13,456.38 C300.41,464.32 318.63,470.67 364.90,482.06 C395.91,489.70 423.11,497.86 438.01,504.00 C454.64,510.86 475.20,527.91 484.81,542.81 C497.87,563.07 500.81,598.65 491.63,625.61 C475.37,673.39 427.23,702.52 357.17,706.99 ZM 642.00 566.01 L 642.00 701.00 L 556.00 701.00 L 556.00 330.00 L 837.03 330.00 L 836.50 398.50 L 641.98 399.01 L 642.50 496.50 L 814.03 497.01 L 813.76 531.26 L 813.50 565.50 L 727.75 565.76 Z" fill="rgb(0,0,0)"/>
<path d="M 0.00 0.00 L 1024.00 0.00 L 1024.00 1024.00 L 0.00 1024.00 ZM 302.59 713.10 C304.23,714.91 305.19,715.11 309.50,714.55 C319.92,713.18 323.04,713.07 327.64,713.93 C330.56,714.47 333.35,714.44 334.93,713.83 C336.35,713.30 342.00,712.97 347.50,713.10 C365.20,713.53 371.29,713.06 373.08,711.14 C374.86,709.24 387.77,707.14 400.89,706.63 C408.39,706.34 409.15,705.96 411.96,701.07 C412.58,699.99 414.98,699.66 421.90,699.72 C430.12,699.79 431.18,699.59 432.51,697.68 C433.33,696.51 434.00,694.83 434.00,693.95 C434.00,692.69 435.23,692.29 439.67,692.11 C446.66,691.83 449.00,690.66 449.00,687.46 C449.00,685.19 450.38,684.38 453.36,684.92 C454.73,685.17 456.93,681.71 456.97,679.25 C457.00,676.83 457.81,676.64 467.19,676.89 L 471.88 677.02 L 472.19 673.26 C472.46,669.99 472.86,669.46 475.25,669.18 C478.98,668.75 480.36,665.79 479.58,659.90 C478.95,655.12 478.97,655.06 482.14,654.24 C485.25,653.44 486.28,652.36 487.40,648.75 C487.72,647.72 488.92,647.00 490.35,647.00 C493.56,647.00 494.79,643.49 494.80,634.33 C494.82,624.84 495.40,623.16 498.48,623.75 C500.41,624.12 501.01,623.73 501.39,621.86 C502.46,616.64 502.89,610.22 502.21,609.55 C501.82,609.15 501.49,598.48 501.49,585.83 C501.48,564.45 501.34,562.73 499.59,561.44 C498.55,560.68 497.35,560.28 496.92,560.55 C495.31,561.55 494.68,558.39 494.55,548.58 C494.40,537.18 493.85,535.57 490.39,536.44 C489.08,536.77 487.97,536.69 487.92,536.27 C487.44,531.36 485.79,529.23 482.18,528.81 C480.21,528.58 479.47,527.91 479.39,526.27 C479.23,523.15 477.18,521.00 474.38,521.00 C472.42,521.00 472.00,520.49 472.00,518.12 C472.00,514.62 470.14,512.89 467.20,513.66 C465.31,514.15 465.00,513.83 465.00,511.32 C465.00,507.09 463.52,506.15 457.66,506.64 C451.64,507.15 450.31,506.49 449.61,502.61 C449.32,501.04 448.91,499.58 448.70,499.36 C448.48,499.15 445.87,498.92 442.90,498.87 C436.27,498.74 433.63,497.52 434.32,494.90 C435.02,492.19 431.56,490.43 428.38,491.87 C427.08,492.47 424.76,492.70 423.24,492.40 C421.72,492.09 418.90,491.72 416.99,491.56 C410.99,491.08 410.65,491.01 411.26,490.41 C411.58,490.08 410.66,488.48 409.20,486.84 C406.91,484.27 406.02,483.93 402.58,484.32 C398.00,484.85 385.42,483.29 382.75,481.87 C381.76,481.34 381.19,480.51 381.48,480.03 C381.78,479.55 381.39,478.54 380.63,477.77 C379.41,476.55 368.26,476.08 361.00,476.94 C358.84,477.20 352.64,475.96 351.73,475.09 C351.30,474.69 350.75,473.31 350.51,472.04 C350.26,470.77 349.92,469.59 349.76,469.42 C349.59,469.25 345.03,469.01 339.62,468.88 C329.73,468.64 327.00,467.69 327.00,464.49 C327.00,462.30 325.28,461.77 316.71,461.31 C307.54,460.82 304.95,459.84 305.49,457.07 C305.76,455.67 305.03,454.86 302.81,454.08 C301.14,453.50 299.37,453.27 298.89,453.57 C298.40,453.87 298.00,452.97 298.00,451.56 C298.00,448.28 294.51,444.70 292.07,445.48 C289.66,446.24 289.39,445.14 289.53,435.00 C289.74,419.02 289.74,419.00 292.30,419.00 C295.34,419.00 297.00,417.21 297.00,413.93 C297.00,411.56 297.33,411.30 299.96,411.61 C303.31,412.00 306.10,409.11 305.48,405.89 C305.28,404.85 305.43,403.94 305.81,403.87 C310.36,403.03 312.46,402.86 318.19,402.85 C324.11,402.84 325.20,402.53 327.56,400.17 L 330.23 397.50 L 352.60 397.38 L 374.97 397.27 L 379.03 400.25 C381.93,402.39 383.85,403.10 385.79,402.76 C387.28,402.49 389.62,402.60 391.00,402.98 C392.38,403.37 394.32,403.27 395.33,402.76 C397.20,401.82 406.92,403.55 407.08,404.85 C407.69,410.09 408.53,410.71 415.27,410.86 C421.92,411.01 424.00,411.74 424.00,413.94 C424.00,416.87 426.48,418.12 433.11,418.54 C440.09,418.99 442.01,420.08 440.02,422.48 C438.30,424.55 439.37,425.45 443.83,425.71 C445.85,425.83 450.97,426.16 455.20,426.44 C460.02,426.77 463.15,426.57 463.55,425.92 C463.90,425.35 464.37,420.86 464.60,415.93 C465.13,404.31 465.01,404.68 468.50,403.41 C471.27,402.41 471.56,401.84 472.27,395.91 C472.99,389.91 474.58,387.08 477.90,385.83 C478.39,385.65 479.06,381.26 479.40,376.07 C479.74,370.89 480.15,366.51 480.32,366.35 C480.49,366.18 481.49,365.91 482.56,365.74 C483.63,365.58 485.03,365.11 485.68,364.71 C487.56,363.53 488.43,353.46 486.96,349.91 C485.70,346.87 485.63,346.84 479.10,347.17 C472.73,347.49 472.49,347.41 472.15,345.02 C471.69,341.76 468.39,339.55 463.75,339.38 C457.40,339.16 457.00,339.05 457.00,337.50 C457.00,336.67 456.16,335.16 455.13,334.13 C453.60,332.60 451.70,332.25 444.60,332.23 C436.55,332.20 435.80,332.02 433.96,329.67 C430.86,325.73 425.81,324.52 412.50,324.51 C398.69,324.50 398.05,324.36 395.92,321.00 C395.64,320.56 395.45,320.18 395.18,319.87 C393.68,318.07 389.97,318.13 356.00,317.73 C340.33,317.55 326.70,317.78 325.73,318.25 C324.73,318.73 320.79,318.66 316.73,318.09 C312.11,317.45 309.38,317.43 309.16,318.05 C308.98,318.58 308.41,318.76 307.91,318.44 C306.23,317.41 303.00,319.10 303.00,321.01 C303.00,322.04 302.65,323.10 302.22,323.37 C300.67,324.32 291.33,325.12 282.71,325.03 C273.70,324.94 271.00,325.93 271.00,329.32 C271.00,331.20 268.87,331.99 263.67,332.03 C259.36,332.06 255.36,334.15 256.39,335.82 C257.38,337.43 254.52,338.98 249.44,339.58 C243.30,340.30 241.22,341.42 240.82,344.24 C240.63,345.54 239.66,346.63 238.50,346.84 C236.00,347.30 233.00,349.89 233.00,351.60 C233.00,353.56 231.07,354.35 225.54,354.67 C220.10,354.98 218.00,356.65 218.00,360.69 C218.00,362.27 217.42,363.00 216.15,363.00 C213.15,363.00 210.84,366.53 210.15,372.19 C209.61,376.64 209.15,377.55 207.32,377.81 C204.13,378.27 203.14,379.98 202.89,385.53 C202.60,392.01 202.22,392.93 199.99,392.50 C196.84,391.89 195.89,394.47 195.53,404.65 C195.32,410.43 194.73,414.59 194.10,414.80 C191.21,415.76 188.94,418.72 188.96,421.50 C188.97,423.15 188.94,425.62 188.90,427.00 C188.86,428.38 188.82,430.17 188.80,431.00 C188.75,434.17 190.09,447.43 190.51,447.84 C190.75,448.08 190.22,449.51 189.34,451.01 C186.72,455.44 189.43,463.64 194.01,465.17 C194.73,465.41 195.16,469.19 195.22,475.82 C195.29,484.58 195.57,486.23 197.08,487.04 C198.06,487.57 199.52,487.74 200.34,487.42 C202.12,486.74 202.84,488.75 203.15,495.24 C203.43,501.20 204.10,502.27 207.65,502.40 C209.99,502.48 210.51,502.95 210.55,505.03 C210.63,508.74 211.77,510.00 215.06,510.00 C216.68,510.00 218.06,510.45 218.12,511.00 C218.58,514.67 220.11,518.05 221.05,517.47 C222.50,516.57 226.00,518.91 226.02,520.79 C226.05,524.59 227.68,525.50 233.96,525.20 C237.28,525.04 240.03,525.26 240.08,525.70 C240.66,531.77 242.78,533.22 250.50,532.81 C254.99,532.58 256.43,532.82 256.24,533.79 C256.09,534.50 256.44,535.96 257.02,537.04 C257.85,538.60 259.14,539.00 263.29,539.02 C271.03,539.05 278.42,541.21 278.85,543.57 C279.04,544.63 279.53,545.86 279.95,546.30 C280.36,546.74 286.92,547.33 294.53,547.60 C302.14,547.88 308.73,548.34 309.18,548.61 C309.63,548.89 310.01,549.88 310.02,550.81 C310.05,554.63 311.43,555.10 324.03,555.61 C330.81,555.88 336.99,556.46 337.76,556.88 C338.52,557.31 339.69,558.75 340.35,560.07 C341.49,562.36 342.08,562.50 351.51,562.69 C357.12,562.80 361.61,563.33 361.80,563.89 C362.75,566.74 366.09,569.66 368.19,569.47 C369.46,569.36 370.94,569.53 371.49,569.84 C372.03,570.16 374.96,570.48 377.99,570.56 C382.71,570.69 384.26,570.69 384.76,571.42 C385.01,571.77 385.00,572.30 385.00,573.09 C385.00,573.19 385.00,573.28 385.00,573.38 C385.00,576.13 386.39,577.46 390.25,578.38 C392.25,578.86 393.00,579.66 393.00,581.32 C393.00,584.23 394.78,586.00 397.70,586.00 C399.47,586.00 400.00,586.56 400.00,588.43 C400.00,591.10 402.36,594.00 404.54,594.00 C408.22,594.00 408.76,603.31 405.15,604.45 C403.14,605.09 400.08,610.00 400.68,611.63 C400.91,612.27 399.51,613.06 397.43,613.45 C394.66,613.97 393.52,614.81 392.72,616.93 C392.05,618.71 390.46,620.15 388.33,620.92 C385.34,622.01 384.54,623.00 384.87,625.22 C385.13,626.96 380.68,627.84 369.61,628.25 C358.54,628.65 357.63,628.84 355.95,631.06 C354.96,632.37 354.42,633.87 354.73,634.38 C355.07,634.92 354.33,635.06 352.99,634.71 C351.72,634.38 349.85,634.55 348.84,635.09 C347.58,635.76 347.00,635.73 347.00,634.98 C347.00,634.25 343.64,633.95 336.85,634.07 C327.76,634.24 326.54,634.05 325.10,632.25 C323.10,629.75 319.34,628.84 311.00,628.85 C307.42,628.86 299.85,628.37 294.17,627.78 C284.70,626.78 283.71,626.48 282.22,624.10 C281.33,622.67 280.44,621.28 280.24,621.02 C280.04,620.75 276.64,620.49 272.69,620.44 C263.33,620.31 260.87,620.28 260.23,619.18 C260.00,618.79 260.00,618.27 260.00,617.56 L 260.00 617.52 C260.00,614.02 256.37,611.94 250.93,612.32 C246.77,612.61 246.38,612.41 244.47,609.06 C242.56,605.70 242.13,605.48 236.65,605.20 C231.14,604.91 230.79,604.73 229.46,601.57 C227.78,597.55 226.53,597.00 218.99,597.00 C212.72,597.00 210.00,598.54 210.00,602.10 C210.00,603.26 208.99,604.44 207.47,605.01 C204.53,606.13 203.87,607.50 203.52,613.26 C203.37,615.59 203.20,618.06 203.13,618.75 C203.06,619.44 201.70,620.00 200.12,620.00 C196.50,620.00 194.44,624.20 195.44,629.53 C196.44,634.84 195.41,637.00 191.90,637.00 C189.24,637.00 189.04,637.21 190.00,639.00 C190.78,640.46 190.74,641.60 189.82,643.25 C189.13,644.49 188.53,645.72 188.48,646.00 C188.44,646.28 188.06,649.03 187.64,652.11 C187.02,656.73 186.45,657.93 184.43,658.85 C181.59,660.14 179.46,664.14 180.36,666.48 C180.70,667.37 182.31,668.56 183.94,669.13 C185.57,669.70 187.80,671.69 188.91,673.58 C190.83,676.82 191.22,677.00 196.50,677.00 C200.93,677.00 202.17,677.36 202.60,678.75 C204.04,683.39 206.26,684.68 213.65,685.18 C215.89,685.33 217.27,686.18 218.42,688.14 C220.25,691.23 222.70,692.27 228.48,692.40 C231.63,692.48 232.54,692.92 232.84,694.50 C233.65,698.91 235.34,699.55 245.70,699.40 C256.30,699.24 258.37,699.60 257.65,701.47 C256.98,703.22 258.52,705.29 260.66,705.51 C261.67,705.61 264.52,706.02 267.00,706.41 C269.48,706.81 276.45,707.34 282.50,707.59 C297.63,708.23 299.91,708.51 301.24,709.84 C301.88,710.48 302.02,711.00 301.55,711.00 C301.07,711.00 301.55,711.95 302.59,713.10 ZM 555.77 706.87 C557.27,707.43 559.40,707.58 560.50,707.21 C562.13,706.66 633.59,706.36 641.84,706.86 C643.13,706.94 644.59,706.75 645.09,706.44 C645.62,706.12 646.00,677.75 646.00,638.02 C646.00,600.70 646.27,569.45 646.61,568.58 C647.15,567.16 655.23,567.00 727.86,567.02 C806.35,567.04 808.57,567.10 811.00,569.00 C814.18,571.49 816.09,571.50 818.73,569.04 C820.78,567.12 820.83,566.33 820.91,530.87 L 820.91 530.56 C820.99,499.91 821.00,493.01 818.13,491.45 C817.29,491.00 816.21,491.00 814.82,491.00 L 814.77 491.00 C811.86,491.00 808.55,493.21 809.71,494.38 C810.05,494.72 809.81,495.00 809.17,495.00 C808.53,495.00 808.00,495.45 808.00,496.00 C808.00,496.55 809.36,497.00 811.01,497.00 L 814.03 497.00 L 814.03 497.01 L 646.60 496.51 C646.92,496.31 647.17,496.06 647.28,495.75 C647.53,495.06 647.32,493.70 646.82,492.73 C646.29,491.71 646.03,471.36 646.20,444.98 L 646.50 399.00 L 646.08 399.00 L 836.12 398.50 L 834.19 398.96 C831.06,399.69 831.00,400.89 834.00,402.50 C836.92,404.06 841.94,403.68 843.17,401.80 C843.64,401.09 843.74,399.38 843.41,398.00 C842.88,395.85 842.58,394.54 842.05,392.00 C841.83,390.95 842.19,334.33 842.43,331.10 C842.71,327.49 840.28,324.00 837.50,324.00 C835.81,324.00 832.00,327.47 832.00,329.00 C832.00,329.55 833.13,330.00 834.51,330.00 L 559.39 330.00 C562.75,330.00 564.45,328.32 563.16,326.28 C562.80,325.71 560.66,324.94 558.42,324.56 C555.22,324.03 554.04,324.25 552.92,325.59 C551.71,327.06 551.46,354.27 551.20,512.90 C551.00,641.75 551.23,699.62 551.97,702.17 C552.72,704.75 553.85,706.15 555.77,706.87 ZM 642.67 496.33 C642.73,496.39 642.79,496.45 642.86,496.50 L 642.50 496.50 L 642.49 494.40 C642.55,495.60 642.61,496.27 642.67,496.33 ZM 642.00 399.01 L 642.00 402.59 L 641.98 399.01 Z" fill="rgb(255,255,255)"/>
<path d="M 302.59 713.10 C301.55,711.95 301.07,711.00 301.55,711.00 C302.02,711.00 301.88,710.48 301.24,709.84 C299.91,708.51 297.63,708.23 282.50,707.59 C276.45,707.34 269.48,706.81 267.00,706.41 C264.52,706.02 261.67,705.61 260.66,705.51 C258.52,705.29 256.98,703.22 257.65,701.47 C258.37,699.60 256.30,699.24 245.70,699.40 C235.34,699.55 233.65,698.91 232.84,694.50 C232.54,692.92 231.63,692.48 228.48,692.40 C222.70,692.27 220.25,691.23 218.42,688.14 C217.27,686.18 215.89,685.33 213.65,685.18 C206.26,684.68 204.04,683.39 202.60,678.75 C202.17,677.36 200.93,677.00 196.50,677.00 C191.22,677.00 190.83,676.82 188.91,673.58 C187.80,671.69 185.57,669.70 183.94,669.13 C182.31,668.56 180.70,667.37 180.36,666.48 C179.46,664.14 181.59,660.14 184.43,658.85 C186.45,657.93 187.02,656.73 187.64,652.11 C188.06,649.03 188.44,646.28 188.48,646.00 C188.53,645.72 189.13,644.49 189.82,643.25 C190.74,641.60 190.78,640.46 190.00,639.00 C189.04,637.21 189.24,637.00 191.90,637.00 C195.41,637.00 196.44,634.84 195.44,629.53 C194.44,624.20 196.50,620.00 200.12,620.00 C201.70,620.00 203.06,619.44 203.13,618.75 C203.20,618.06 203.37,615.59 203.52,613.26 C203.87,607.50 204.53,606.13 207.47,605.01 C208.99,604.44 210.00,603.26 210.00,602.10 C210.00,598.54 212.72,597.00 218.99,597.00 C226.53,597.00 227.78,597.55 229.46,601.57 C230.79,604.73 231.14,604.91 236.65,605.20 C242.13,605.48 242.56,605.70 244.47,609.06 C246.38,612.41 246.77,612.61 250.93,612.32 C256.37,611.94 260.00,614.02 260.00,617.52 C260.00,620.27 259.95,620.26 272.69,620.44 C276.64,620.49 280.04,620.75 280.24,621.02 C280.44,621.28 281.33,622.67 282.22,624.10 C283.71,626.48 284.70,626.78 294.17,627.78 C299.85,628.37 307.42,628.86 311.00,628.85 C319.34,628.84 323.10,629.75 325.10,632.25 C326.54,634.05 327.76,634.24 336.85,634.07 C343.64,633.95 347.00,634.25 347.00,634.98 C347.00,635.73 347.58,635.76 348.84,635.09 C349.85,634.55 351.72,634.38 352.99,634.71 C354.33,635.06 355.07,634.92 354.73,634.38 C354.42,633.87 354.96,632.37 355.95,631.06 C357.63,628.84 358.54,628.65 369.61,628.25 C380.68,627.84 385.13,626.96 384.87,625.22 C384.54,623.00 385.34,622.01 388.33,620.92 C390.46,620.15 392.05,618.71 392.72,616.93 C393.52,614.81 394.66,613.97 397.43,613.45 C399.51,613.06 400.91,612.27 400.68,611.63 C400.08,610.00 403.14,605.09 405.15,604.45 C408.76,603.31 408.22,594.00 404.54,594.00 C402.36,594.00 400.00,591.10 400.00,588.43 C400.00,586.56 399.47,586.00 397.70,586.00 C394.78,586.00 393.00,584.23 393.00,581.32 C393.00,579.66 392.25,578.86 390.25,578.38 C386.39,577.46 385.00,576.13 385.00,573.38 C385.00,570.66 385.27,570.77 377.99,570.56 C374.96,570.48 372.03,570.16 371.49,569.84 C370.94,569.53 369.46,569.36 368.19,569.47 C366.09,569.66 362.75,566.74 361.80,563.89 C361.61,563.33 357.12,562.80 351.51,562.69 C342.08,562.50 341.49,562.36 340.35,560.07 C339.69,558.75 338.52,557.31 337.76,556.88 C336.99,556.46 330.81,555.88 324.03,555.61 C311.43,555.10 310.05,554.63 310.02,550.81 C310.01,549.88 309.63,548.89 309.18,548.61 C308.73,548.34 302.14,547.88 294.53,547.60 C286.92,547.33 280.36,546.74 279.95,546.30 C279.53,545.86 279.04,544.63 278.85,543.57 C278.42,541.21 271.03,539.05 263.29,539.02 C259.14,539.00 257.85,538.60 257.02,537.04 C256.44,535.96 256.09,534.50 256.24,533.79 C256.43,532.82 254.99,532.58 250.50,532.81 C242.78,533.22 240.66,531.77 240.08,525.70 C240.03,525.26 237.28,525.04 233.96,525.20 C227.68,525.50 226.05,524.59 226.02,520.79 C226.00,518.91 222.50,516.57 221.05,517.47 C220.11,518.05 218.58,514.67 218.12,511.00 C218.06,510.45 216.68,510.00 215.06,510.00 C211.77,510.00 210.63,508.74 210.55,505.03 C210.51,502.95 209.99,502.48 207.65,502.40 C204.10,502.27 203.43,501.20 203.15,495.24 C202.84,488.75 202.12,486.74 200.34,487.42 C199.52,487.74 198.06,487.57 197.08,487.04 C195.57,486.23 195.29,484.58 195.22,475.82 C195.16,469.19 194.73,465.41 194.01,465.17 C189.43,463.64 186.72,455.44 189.34,451.01 C190.22,449.51 190.75,448.08 190.51,447.84 C190.09,447.43 188.75,434.17 188.80,431.00 C188.82,430.17 188.86,428.38 188.90,427.00 C188.94,425.62 188.97,423.15 188.96,421.50 C188.94,418.72 191.21,415.76 194.10,414.80 C194.73,414.59 195.32,410.43 195.53,404.65 C195.89,394.47 196.84,391.89 199.99,392.50 C202.22,392.93 202.60,392.01 202.89,385.53 C203.14,379.98 204.13,378.27 207.32,377.81 C209.15,377.55 209.61,376.64 210.15,372.19 C210.84,366.53 213.15,363.00 216.15,363.00 C217.42,363.00 218.00,362.27 218.00,360.69 C218.00,356.65 220.10,354.98 225.54,354.67 C231.07,354.35 233.00,353.56 233.00,351.60 C233.00,349.89 236.00,347.30 238.50,346.84 C239.66,346.63 240.63,345.54 240.82,344.24 C241.22,341.42 243.30,340.30 249.44,339.58 C254.52,338.98 257.38,337.43 256.39,335.82 C255.36,334.15 259.36,332.06 263.67,332.03 C268.87,331.99 271.00,331.20 271.00,329.32 C271.00,325.93 273.70,324.94 282.71,325.03 C291.33,325.12 300.67,324.32 302.22,323.37 C302.65,323.10 303.00,322.04 303.00,321.01 C303.00,319.10 306.23,317.41 307.91,318.44 C308.41,318.76 308.98,318.58 309.16,318.05 C309.38,317.43 312.11,317.45 316.73,318.09 C320.79,318.66 324.73,318.73 325.73,318.25 C326.70,317.78 340.33,317.55 356.00,317.73 C395.95,318.19 394.05,318.04 395.92,321.00 C398.05,324.36 398.69,324.50 412.50,324.51 C425.81,324.52 430.86,325.73 433.96,329.67 C435.80,332.02 436.55,332.20 444.60,332.23 C451.70,332.25 453.60,332.60 455.13,334.13 C456.16,335.16 457.00,336.67 457.00,337.50 C457.00,339.05 457.40,339.16 463.75,339.38 C468.39,339.55 471.69,341.76 472.15,345.02 C472.49,347.41 472.73,347.49 479.10,347.17 C485.63,346.84 485.70,346.87 486.96,349.91 C488.43,353.46 487.56,363.53 485.68,364.71 C485.03,365.11 483.63,365.58 482.56,365.74 C481.49,365.91 480.49,366.18 480.32,366.35 C480.15,366.51 479.74,370.89 479.40,376.07 C479.06,381.26 478.39,385.65 477.90,385.83 C474.58,387.08 472.99,389.91 472.27,395.91 C471.56,401.84 471.27,402.41 468.50,403.41 C465.01,404.68 465.13,404.31 464.60,415.93 C464.37,420.86 463.90,425.35 463.55,425.92 C463.15,426.57 460.02,426.77 455.20,426.44 C450.97,426.16 445.85,425.83 443.83,425.71 C439.37,425.45 438.30,424.55 440.02,422.48 C442.01,420.08 440.09,418.99 433.11,418.54 C426.48,418.12 424.00,416.87 424.00,413.94 C424.00,411.74 421.92,411.01 415.27,410.86 C408.53,410.71 407.69,410.09 407.08,404.85 C406.92,403.55 397.20,401.82 395.33,402.76 C394.32,403.27 392.38,403.37 391.00,402.98 C389.62,402.60 387.28,402.49 385.79,402.76 C383.85,403.10 381.93,402.39 379.03,400.25 L 374.97 397.27 L 352.60 397.38 L 330.23 397.50 L 327.56 400.17 C325.20,402.53 324.11,402.84 318.19,402.85 C312.46,402.86 310.36,403.03 305.81,403.87 C305.43,403.94 305.28,404.85 305.48,405.89 C306.10,409.11 303.31,412.00 299.96,411.61 C297.33,411.30 297.00,411.56 297.00,413.93 C297.00,417.21 295.34,419.00 292.30,419.00 C289.74,419.00 289.74,419.02 289.53,435.00 C289.39,445.14 289.66,446.24 292.07,445.48 C294.51,444.70 298.00,448.28 298.00,451.56 C298.00,452.97 298.40,453.87 298.89,453.57 C299.37,453.27 301.14,453.50 302.81,454.08 C305.03,454.86 305.76,455.67 305.49,457.07 C304.95,459.84 307.54,460.82 316.71,461.31 C325.28,461.77 327.00,462.30 327.00,464.49 C327.00,467.69 329.73,468.64 339.62,468.88 C345.03,469.01 349.59,469.25 349.76,469.42 C349.92,469.59 350.26,470.77 350.51,472.04 C350.75,473.31 351.30,474.69 351.73,475.09 C352.64,475.96 358.84,477.20 361.00,476.94 C368.26,476.08 379.41,476.55 380.63,477.77 C381.39,478.54 381.78,479.55 381.48,480.03 C381.19,480.51 381.76,481.34 382.75,481.87 C385.42,483.29 398.00,484.85 402.58,484.32 C406.02,483.93 406.91,484.27 409.20,486.84 C410.66,488.48 411.58,490.08 411.26,490.41 C410.65,491.01 410.99,491.08 416.99,491.56 C418.90,491.72 421.72,492.09 423.24,492.40 C424.76,492.70 427.08,492.47 428.38,491.87 C431.56,490.43 435.02,492.19 434.32,494.90 C433.63,497.52 436.27,498.74 442.90,498.87 C445.87,498.92 448.48,499.15 448.70,499.36 C448.91,499.58 449.32,501.04 449.61,502.61 C450.31,506.49 451.64,507.15 457.66,506.64 C463.52,506.15 465.00,507.09 465.00,511.32 C465.00,513.83 465.31,514.15 467.20,513.66 C470.14,512.89 472.00,514.62 472.00,518.12 C472.00,520.49 472.42,521.00 474.38,521.00 C477.18,521.00 479.23,523.15 479.39,526.27 C479.47,527.91 480.21,528.58 482.18,528.81 C485.79,529.23 487.44,531.36 487.92,536.27 C487.97,536.69 489.08,536.77 490.39,536.44 C493.85,535.57 494.40,537.18 494.55,548.58 C494.68,558.39 495.31,561.55 496.92,560.55 C497.35,560.28 498.55,560.68 499.59,561.44 C501.34,562.73 501.48,564.45 501.49,585.83 C501.49,598.48 501.82,609.15 502.21,609.55 C502.89,610.22 502.46,616.64 501.39,621.86 C501.01,623.73 500.41,624.12 498.48,623.75 C495.40,623.16 494.82,624.84 494.80,634.33 C494.79,643.49 493.56,647.00 490.35,647.00 C488.92,647.00 487.72,647.72 487.40,648.75 C486.28,652.36 485.25,653.44 482.14,654.24 C478.97,655.06 478.95,655.12 479.58,659.90 C480.36,665.79 478.98,668.75 475.25,669.18 C472.86,669.46 472.46,669.99 472.19,673.26 L 471.88 677.02 L 467.19 676.89 C457.81,676.64 457.00,676.83 456.97,679.25 C456.93,681.71 454.73,685.17 453.36,684.92 C450.38,684.38 449.00,685.19 449.00,687.46 C449.00,690.66 446.66,691.83 439.67,692.11 C435.23,692.29 434.00,692.69 434.00,693.95 C434.00,694.83 433.33,696.51 432.51,697.68 C431.18,699.59 430.12,699.79 421.90,699.72 C414.98,699.66 412.58,699.99 411.96,701.07 C409.15,705.96 408.39,706.34 400.89,706.63 C387.77,707.14 374.86,709.24 373.08,711.14 C371.29,713.06 365.20,713.53 347.50,713.10 C342.00,712.97 336.35,713.30 334.93,713.83 C333.35,714.44 330.56,714.47 327.64,713.93 C323.04,713.07 319.92,713.18 309.50,714.55 C305.19,715.11 304.23,714.91 302.59,713.10 ZM 357.17 706.99 C427.23,702.52 475.37,673.39 491.63,625.61 C500.81,598.65 497.87,563.07 484.81,542.81 C475.20,527.91 454.64,510.86 438.01,504.00 C423.11,497.86 395.91,489.70 364.90,482.06 C318.63,470.67 300.41,464.32 291.13,456.38 C281.57,448.19 278.77,432.95 284.49,420.20 C289.89,408.18 303.27,399.05 321.00,395.30 C327.85,393.85 333.96,393.51 352.50,393.58 C373.10,393.65 376.92,393.93 389.08,396.30 C407.96,399.98 431.02,408.36 448.85,418.02 C451.87,419.65 454.51,420.82 454.72,420.61 C454.93,420.40 458.95,410.84 463.64,399.36 C468.33,387.89 474.16,373.72 476.59,367.87 C479.01,362.02 481.00,356.82 481.00,356.31 C481.00,354.62 457.36,343.02 445.75,339.00 C403.88,324.53 358.87,319.91 315.00,325.58 C275.11,330.75 238.92,348.18 219.69,371.49 C203.91,390.62 195.99,413.44 196.01,439.66 C196.05,471.68 205.85,492.74 229.87,512.40 C247.60,526.90 266.17,534.10 325.50,549.47 C378.67,563.25 382.21,564.36 392.62,570.60 C408.17,579.92 414.23,592.04 410.50,606.36 C406.70,620.92 394.47,630.51 373.82,635.11 C361.92,637.76 332.05,638.81 318.63,637.06 C282.69,632.36 253.24,622.26 226.46,605.45 C221.65,602.43 217.56,600.10 217.38,600.28 C216.66,601.00 189.88,660.63 189.38,662.63 C188.93,664.43 190.12,665.62 196.67,669.94 C227.84,690.47 279.12,705.18 327.00,707.32 C330.58,707.48 335.30,707.70 337.50,707.80 C339.70,707.91 348.55,707.54 357.17,706.99 ZM 555.77 706.87 C553.85,706.15 552.72,704.75 551.97,702.17 C551.23,699.62 551.00,641.75 551.20,512.90 C551.46,354.27 551.71,327.06 552.92,325.59 C554.04,324.25 555.22,324.03 558.42,324.56 C560.66,324.94 562.80,325.71 563.16,326.28 C564.45,328.32 562.75,330.00 559.39,330.00 L 556.00 330.00 L 556.00 515.50 L 556.00 701.00 L 599.00 701.00 L 642.00 701.00 L 642.00 633.51 L 642.00 566.01 L 727.75 565.76 L 813.50 565.50 L 813.76 531.25 L 814.03 497.00 L 811.01 497.00 C809.36,497.00 808.00,496.55 808.00,496.00 C808.00,495.45 808.53,495.00 809.17,495.00 C809.81,495.00 810.05,494.72 809.71,494.38 C808.55,493.21 811.86,491.00 814.77,491.00 C821.02,491.00 821.01,490.90 820.91,530.87 C820.83,566.33 820.78,567.12 818.73,569.04 C816.09,571.50 814.18,571.49 811.00,569.00 C808.57,567.10 806.35,567.04 727.86,567.02 C655.23,567.00 647.15,567.16 646.61,568.58 C646.27,569.45 646.00,600.70 646.00,638.02 C646.00,677.75 645.62,706.12 645.09,706.44 C644.59,706.75 643.13,706.94 641.84,706.86 C633.59,706.36 562.13,706.66 560.50,707.21 C559.40,707.58 557.27,707.43 555.77,706.87 ZM 642.67 496.33 C642.30,495.97 642.00,473.92 642.00,447.33 L 642.00 399.00 L 644.25 399.00 L 646.50 399.00 L 646.20 444.98 C646.03,471.36 646.29,491.71 646.82,492.73 C647.32,493.70 647.53,495.06 647.28,495.75 C646.81,497.07 643.79,497.46 642.67,496.33 ZM 834.00 402.50 C831.00,400.89 831.06,399.69 834.19,398.96 L 836.50 398.41 L 836.76 364.21 L 837.03 330.00 L 834.51 330.00 C833.13,330.00 832.00,329.55 832.00,329.00 C832.00,327.47 835.81,324.00 837.50,324.00 C840.28,324.00 842.71,327.49 842.43,331.10 C842.19,334.33 841.83,390.95 842.05,392.00 C842.58,394.54 842.88,395.85 843.41,398.00 C843.74,399.38 843.64,401.09 843.17,401.80 C841.94,403.68 836.92,404.06 834.00,402.50 Z" fill="rgb(253,253,253)"/>
</g>
</svg>